#!OML:ASF E:\id_vita\Project 1\Capture day 1\Session 1\Female.ASF
:FULLY-SPECIFIED
:DEGREES
1111
root 4.92041 27.4552 1.61158 715.67 99.2256 696.391
lowerback -7.49675 1.83397 -4.8397
upperback -1.24813 3.03103 -3.25814
thorax 2.83987 1.51695 -0.358423
lowerneck 3.37298 -3.22721 -8.46393
upperneck -9.64488 -3.7812 11.2359
head -2.99489 -2.00089 4.94298
rclavicle -1.5704e-014 -2.26615e-014
rhumerus -33.5114 -1.55376 -91.4282
rradius 27.7459
rwrist 9.51211
rhand -12.107 7.88438
rfingers 7.12502
rthumb 13.9539 -21.6274
lclavicle -1.5704e-014 -2.26615e-014
lhumerus -50.3639 36.5226 50.4602
lradius 20.9398
lwrist -30.7997
lhand -0.0330031 23.7659
lfingers 7.12502
lthumb 25.5588 52.0712
rfemur -29.4263 11.1778 18.6609
rtibia 18.9206
rfoot 1.4629 -22.6319
rtoes 1.46946
lfemur -46.6004 -2.62518 -17.9487
ltibia 61.3616
lfoot -1.32223 -12.9013
ltoes -6.75324
1112
root 4.91164 27.451 1.61645 715.699 99.2773 696.488
lowerback -7.46918 1.87498 -5.01204
upperback -1.15417 3.10217 -3.26996
thorax 2.91175 1.54778 -0.267481
lowerneck 3.70366 -3.22128 -8.63866
upperneck -9.87489 -3.77401 11.4332
head -3.1103 -2.00887 5.04638
rclavicle 6.25178e-014 -7.55382e-015
rhumerus -33.5186 -1.16754 -91.5615
rradius 28.3304
rwrist 8.93766
rhand -12.4747 8.0053
rfingers 7.12502
rthumb 13.5995 -21.5305
lclavicle 6.25178e-014 -7.55382e-015
lhumerus -49.9459 36.8926 50.5699
lradius 20.9916
lwrist -30.6773
lhand -0.258324 23.467
lfingers 7.12502
lthumb 25.3429 51.8031
rfemur -29.4006 11.2217 18.6657
rtibia 18.9615
rfoot 1.60093 -22.6511
rtoes 1.6541
lfemur -46.2541 -2.40044 -18.0918
ltibia 61.4869
lfoot -1.46313 -12.7915
ltoes -6.26289
1113
root 4.90363 27.4483 1.62221 715.676 99.2967 696.518
lowerback -7.66717 1.85739 -5.26278
upperback -0.903808 3.12182 -3.19998
thorax 3.26478 1.54149 -0.0412421
lowerneck 3.66331 -3.14438 -8.91576
upperneck -10.0719 -3.64858 11.6475
head -3.16336 -1.94309 5.16068
rclavicle -2.26615e-014 -2.18663e-014
rhumerus -33.2512 -0.582613 -91.6458
rradius 28.9864
rwrist 8.28045
rhand -12.4412 7.8075
rfingers 7.12502
rthumb 13.6318 -21.7261
lclavicle -2.26615e-014 -2.18663e-014
lhumerus -49.467 37.5725 50.7857
lradius 21.1178
lwrist -30.6751
lhand -0.246432 23.2829
lfingers 7.12502
lthumb 25.3543 51.6174
rfemur -29.3899 11.3975 18.6218
rtibia 18.9746
rfoot 1.76798 -22.7917
rtoes 1.84885
lfemur -45.9211 -2.15014 -18.2456
ltibia 61.5903
lfoot -1.41562 -12.6075
ltoes -5.73906
1114
root 4.89555 27.4508 1.62733 715.968 99.319 696.809
lowerback -7.51998 1.87737 -5.30647
upperback -0.987678 3.14151 -3.27185
thorax 3.09652 1.55748 -0.0969873
lowerneck 3.60697 -3.1537 -9.04546
upperneck -9.77631 -3.67382 11.8414
head -3.05611 -1.95806 5.23539
rclavicle 2.06736e-014 -2.90226e-014
rhumerus -33.4339 -0.190061 -91.9148
rradius 29.4189
rwrist 7.79076
rhand -12.7384 7.82079
rfingers 7.12502
rthumb 13.3453 -21.7318
lclavicle 2.06736e-014 -2.90226e-014
lhumerus -49.0779 37.3811 51.0898
lradius 21.3635
lwrist -30.3209
lhand -0.271621 23.3005
lfingers 7.12502
lthumb 25.3302 51.6384
rfemur -29.4305 11.5655 18.6008
rtibia 18.9565
rfoot 1.77754 -22.9649
rtoes 2.11791
lfemur -45.6288 -1.86969 -18.3661
ltibia 61.6616
lfoot -1.4895 -12.4364
ltoes -5.84175
1115
root 4.88314 27.4519 1.63101 716.632 99.3461 697.367
lowerback -7.83855 1.92243 -5.48826
upperback -0.876007 3.2462 -3.23097
thorax 3.37491 1.59836 0.0714544
lowerneck 3.75018 -3.29281 -9.21426
upperneck -9.68452 -3.88415 11.9922
head -3.02273 -2.06846 5.31619
rclavicle -2.27608e-014 2.8625e-014
rhumerus -33.2764 0.301918 -92.043
rradius 29.6164
rwrist 7.18032
rhand -13.4622 8.16023
rfingers 7.12502
rthumb 12.6477 -21.4368
lclavicle -2.27608e-014 2.8625e-014
lhumerus -48.2467 37.5007 51.7978
lradius 21.4147
lwrist -30.1348
lhand -0.593058 23.2946
lfingers 7.12502
lthumb 25.0222 51.6758
rfemur -29.5759 11.4823 18.6783
rtibia 18.8795
rfoot 1.69327 -22.8898
rtoes 2.5372
lfemur -45.4896 -1.58497 -18.4375
ltibia 61.7278
lfoot -1.60472 -12.3778
ltoes -5.93217
1116
root 4.86901 27.4512 1.63197 717.298 99.3043 697.887
lowerback -7.47522 1.98437 -5.14437
upperback -1.26575 3.2743 -3.56295
thorax 2.80487 1.64213 -0.482894
lowerneck 4.1861 -3.26897 -9.09819
upperneck -9.52336 -3.85416 12.369
head -3.0444 -2.08619 5.42078
rclavicle -2.40529e-014 2.54444e-014
rhumerus -33.7461 0.307682 -92.6126
rradius 29.8447
rwrist 6.82078
rhand -13.6892 8.37184
rfingers 7.12502
rthumb 12.4287 -21.2386
lclavicle -2.40529e-014 2.54444e-014
lhumerus -47.6708 36.3447 52.2755
lradius 21.6449
lwrist -28.9623
lhand -0.956315 23.3501
lfingers 7.12502
lthumb 24.6741 51.7793
rfemur -29.7637 11.1508 18.8539
rtibia 18.7871
rfoot 1.60372 -22.4792
rtoes 2.61044
lfemur -45.4304 -1.26373 -18.5214
ltibia 61.8027
lfoot -1.63196 -12.3079
ltoes -5.76889
1117
root 4.85693 27.45 1.63213 718.082 99.3026 698.603
lowerback -7.56969 1.95651 -5.1281
upperback -1.25364 3.24399 -3.55851
thorax 2.87164 1.62564 -0.485978
lowerneck 4.2894 -3.24155 -9.13421
upperneck -9.62898 -3.81251 12.4295
head -3.09522 -2.07 5.45007
rclavicle -3.79679e-014 4.77083e-015
rhumerus -33.6079 0.62269 -92.7411
rradius 29.9657
rwrist 6.41341
rhand -13.7036 8.74562
rfingers 7.12502
rthumb 12.4149 -20.8657
lclavicle -3.79679e-014 4.77083e-015
lhumerus -47.0253 36.0455 53.0041
lradius 21.9104
lwrist -28.0394
lhand -1.26873 23.425
lfingers 7.12502
lthumb 24.3746 51.8948
rfemur -29.8567 10.8928 19.041
rtibia 18.7098
rfoot 1.6129 -22.1202
rtoes 2.23909
lfemur -45.2804 -0.962568 -18.5933
ltibia 61.8745
lfoot -1.69175 -12.2583
ltoes -6.09107
